<mxfile host="app.diagrams.net" modified="2023-01-09T21:42:37.861Z" agent="5.0 (Windows NT 10.0; Win64; x64) AppleWebKit/537.36 (KHTML, like Gecko) Chrome/108.0.0.0 Safari/537.36" version="20.8.3" etag="B1WnDD0GzYuaDZWWk29G" type="github">
  <diagram id="JyhehX-pUxhA8RYF2zwU" name="PÃ¡gina-1">
    <mxGraphModel dx="1687" dy="936" grid="1" gridSize="10" guides="1" tooltips="1" connect="1" arrows="1" fold="1" page="1" pageScale="1" pageWidth="827" pageHeight="1169" math="0" shadow="0">
      <root>
        <mxCell id="0" />
        <mxCell id="1" parent="0" />
        <mxCell id="YZ8cHGnXvSMEDQviJ1p--15" value="" style="group" vertex="1" connectable="0" parent="1">
          <mxGeometry x="160" y="320" width="480" height="20" as="geometry" />
        </mxCell>
        <mxCell id="YZ8cHGnXvSMEDQviJ1p--8" value="" style="verticalLabelPosition=bottom;verticalAlign=top;html=1;shape=mxgraph.basic.corner_round_rect;dx=5;whiteSpace=wrap;rotation=-180;flipH=1;fillColor=#E6E6E6;strokeColor=none;" vertex="1" parent="YZ8cHGnXvSMEDQviJ1p--15">
          <mxGeometry width="240" height="20" as="geometry" />
        </mxCell>
        <mxCell id="YZ8cHGnXvSMEDQviJ1p--14" value="" style="verticalLabelPosition=bottom;verticalAlign=top;html=1;shape=mxgraph.basic.corner_round_rect;dx=5;whiteSpace=wrap;rotation=-180;flipH=0;strokeColor=none;fillColor=#E6E6E6;" vertex="1" parent="YZ8cHGnXvSMEDQviJ1p--15">
          <mxGeometry x="240" width="240" height="20" as="geometry" />
        </mxCell>
        <mxCell id="YZ8cHGnXvSMEDQviJ1p--38" value="" style="verticalLabelPosition=bottom;verticalAlign=top;html=1;shape=mxgraph.basic.corner_round_rect;dx=6;whiteSpace=wrap;fillStyle=auto;strokeColor=#FFFFFF;fillColor=#FFFFFF;flipH=1;flipV=1;" vertex="1" parent="YZ8cHGnXvSMEDQviJ1p--15">
          <mxGeometry x="240" width="60" height="10" as="geometry" />
        </mxCell>
        <mxCell id="YZ8cHGnXvSMEDQviJ1p--16" value="" style="group" vertex="1" connectable="0" parent="1">
          <mxGeometry x="200" y="300" width="400" height="10" as="geometry" />
        </mxCell>
        <mxCell id="YZ8cHGnXvSMEDQviJ1p--17" value="" style="verticalLabelPosition=bottom;verticalAlign=top;html=1;shape=mxgraph.basic.corner_round_rect;dx=5;whiteSpace=wrap;rotation=-180;flipH=1;fillColor=#E6E6E6;strokeColor=none;" vertex="1" parent="YZ8cHGnXvSMEDQviJ1p--16">
          <mxGeometry width="200" height="10" as="geometry" />
        </mxCell>
        <mxCell id="YZ8cHGnXvSMEDQviJ1p--18" value="" style="verticalLabelPosition=bottom;verticalAlign=top;html=1;shape=mxgraph.basic.corner_round_rect;dx=5;whiteSpace=wrap;rotation=-180;flipH=0;strokeColor=none;fillColor=#E6E6E6;" vertex="1" parent="YZ8cHGnXvSMEDQviJ1p--16">
          <mxGeometry x="200" width="200" height="10" as="geometry" />
        </mxCell>
        <mxCell id="YZ8cHGnXvSMEDQviJ1p--22" value="" style="group" vertex="1" connectable="0" parent="1">
          <mxGeometry x="200" y="79.99999999999999" width="400" height="10.000000000000028" as="geometry" />
        </mxCell>
        <mxCell id="YZ8cHGnXvSMEDQviJ1p--20" value="" style="verticalLabelPosition=bottom;verticalAlign=top;html=1;shape=mxgraph.basic.corner_round_rect;dx=5;whiteSpace=wrap;rotation=-180;flipH=1;fillColor=#E6E6E6;strokeColor=none;flipV=1;" vertex="1" parent="YZ8cHGnXvSMEDQviJ1p--22">
          <mxGeometry y="1.4210854715202004e-14" width="200" height="10" as="geometry" />
        </mxCell>
        <mxCell id="YZ8cHGnXvSMEDQviJ1p--21" value="" style="verticalLabelPosition=bottom;verticalAlign=top;html=1;shape=mxgraph.basic.corner_round_rect;dx=5;whiteSpace=wrap;rotation=-180;flipH=0;strokeColor=none;fillColor=#E6E6E6;flipV=1;" vertex="1" parent="YZ8cHGnXvSMEDQviJ1p--22">
          <mxGeometry x="200" y="1.4210854715202004e-14" width="200" height="10" as="geometry" />
        </mxCell>
        <mxCell id="YZ8cHGnXvSMEDQviJ1p--29" value="" style="verticalLabelPosition=bottom;verticalAlign=top;html=1;shape=mxgraph.basic.rect;fillColor2=none;strokeWidth=1;size=20;indent=5;strokeColor=none;fillColor=#E6E6E6;rotation=90;" vertex="1" parent="1">
          <mxGeometry x="99.75" y="190.25" width="210.5" height="10" as="geometry" />
        </mxCell>
        <mxCell id="YZ8cHGnXvSMEDQviJ1p--30" value="" style="verticalLabelPosition=bottom;verticalAlign=top;html=1;shape=mxgraph.basic.rect;fillColor2=none;strokeWidth=1;size=20;indent=5;strokeColor=none;fillColor=#E6E6E6;rotation=90;" vertex="1" parent="1">
          <mxGeometry x="490" y="190.25" width="210.5" height="10" as="geometry" />
        </mxCell>
        <mxCell id="YZ8cHGnXvSMEDQviJ1p--37" value="" style="verticalLabelPosition=bottom;verticalAlign=top;html=1;shape=mxgraph.basic.corner_round_rect;dx=6;whiteSpace=wrap;fillStyle=auto;strokeColor=#FFFFFF;fillColor=#FFFFFF;flipV=1;" vertex="1" parent="1">
          <mxGeometry x="340" y="320" width="60" height="10" as="geometry" />
        </mxCell>
        <mxCell id="YZ8cHGnXvSMEDQviJ1p--117" value="" style="group" vertex="1" connectable="0" parent="1">
          <mxGeometry x="340" y="140.05" width="120" height="120" as="geometry" />
        </mxCell>
        <mxCell id="YZ8cHGnXvSMEDQviJ1p--106" value="" style="verticalLabelPosition=bottom;verticalAlign=top;html=1;shape=mxgraph.basic.rect;fillColor2=none;strokeWidth=1;size=20;indent=5;shadow=0;sketch=0;strokeColor=default;fillColor=none;" vertex="1" parent="YZ8cHGnXvSMEDQviJ1p--117">
          <mxGeometry width="120" height="120" as="geometry" />
        </mxCell>
        <mxCell id="YZ8cHGnXvSMEDQviJ1p--105" value="" style="group" vertex="1" connectable="0" parent="YZ8cHGnXvSMEDQviJ1p--117">
          <mxGeometry x="15.000000000000057" y="14.949999999999989" width="90.29999999999995" height="90.1" as="geometry" />
        </mxCell>
        <mxCell id="YZ8cHGnXvSMEDQviJ1p--68" value="" style="verticalLabelPosition=bottom;verticalAlign=top;html=1;shape=mxgraph.basic.corner_round_rect;dx=0;whiteSpace=wrap;shadow=0;sketch=0;strokeColor=none;strokeWidth=1;fillColor=#000000;rotation=-90;" vertex="1" parent="YZ8cHGnXvSMEDQviJ1p--105">
          <mxGeometry x="35.049999999999955" y="64.6" width="40" height="10.5" as="geometry" />
        </mxCell>
        <mxCell id="YZ8cHGnXvSMEDQviJ1p--80" value="" style="group" vertex="1" connectable="0" parent="YZ8cHGnXvSMEDQviJ1p--105">
          <mxGeometry x="0.2999999999999545" y="50" width="40" height="40.099999999999994" as="geometry" />
        </mxCell>
        <mxCell id="YZ8cHGnXvSMEDQviJ1p--69" value="" style="verticalLabelPosition=bottom;verticalAlign=top;html=1;shape=mxgraph.basic.corner_round_rect;dx=2.5;whiteSpace=wrap;shadow=0;sketch=0;strokeColor=none;strokeWidth=1;fillColor=#000000;rotation=-90;resizeHeight=0;" vertex="1" parent="YZ8cHGnXvSMEDQviJ1p--80">
          <mxGeometry x="-10.25" y="19.349999999999994" width="31" height="10.5" as="geometry" />
        </mxCell>
        <mxCell id="YZ8cHGnXvSMEDQviJ1p--70" value="" style="verticalLabelPosition=bottom;verticalAlign=top;html=1;shape=mxgraph.basic.corner_round_rect;dx=0;whiteSpace=wrap;shadow=0;sketch=0;strokeColor=none;strokeWidth=1;fillColor=#000000;rotation=-90;" vertex="1" parent="YZ8cHGnXvSMEDQviJ1p--80">
          <mxGeometry x="15" y="15.050000000000011" width="40" height="10" as="geometry" />
        </mxCell>
        <mxCell id="YZ8cHGnXvSMEDQviJ1p--71" value="" style="verticalLabelPosition=bottom;verticalAlign=top;html=1;shape=mxgraph.basic.corner_round_rect;dx=0;whiteSpace=wrap;shadow=0;sketch=0;strokeColor=none;strokeWidth=1;fillColor=#000000;rotation=0;" vertex="1" parent="YZ8cHGnXvSMEDQviJ1p--80">
          <mxGeometry width="40" height="10" as="geometry" />
        </mxCell>
        <mxCell id="YZ8cHGnXvSMEDQviJ1p--72" value="" style="verticalLabelPosition=bottom;verticalAlign=top;html=1;shape=mxgraph.basic.corner_round_rect;dx=0;whiteSpace=wrap;shadow=0;sketch=0;strokeColor=none;strokeWidth=1;fillColor=#000000;rotation=-180;" vertex="1" parent="YZ8cHGnXvSMEDQviJ1p--80">
          <mxGeometry x="10" y="30.099999999999994" width="30" height="10" as="geometry" />
        </mxCell>
        <mxCell id="YZ8cHGnXvSMEDQviJ1p--73" value="" style="verticalLabelPosition=bottom;verticalAlign=top;html=1;shape=mxgraph.basic.corner_round_rect;dx=0;whiteSpace=wrap;shadow=0;sketch=0;strokeColor=none;strokeWidth=1;fillColor=#000000;rotation=-90;" vertex="1" parent="YZ8cHGnXvSMEDQviJ1p--80">
          <mxGeometry x="15" y="15" width="10" height="10.5" as="geometry" />
        </mxCell>
        <mxCell id="YZ8cHGnXvSMEDQviJ1p--81" value="" style="group;rotation=90;" vertex="1" connectable="0" parent="YZ8cHGnXvSMEDQviJ1p--105">
          <mxGeometry x="0.049999999999954525" width="40" height="40.099999999999994" as="geometry" />
        </mxCell>
        <mxCell id="YZ8cHGnXvSMEDQviJ1p--82" value="" style="verticalLabelPosition=bottom;verticalAlign=top;html=1;shape=mxgraph.basic.corner_round_rect;dx=2.5;whiteSpace=wrap;shadow=0;sketch=0;strokeColor=none;strokeWidth=1;fillColor=#000000;rotation=0;resizeHeight=0;" vertex="1" parent="YZ8cHGnXvSMEDQviJ1p--81">
          <mxGeometry width="31" height="10.5" as="geometry" />
        </mxCell>
        <mxCell id="YZ8cHGnXvSMEDQviJ1p--83" value="" style="verticalLabelPosition=bottom;verticalAlign=top;html=1;shape=mxgraph.basic.corner_round_rect;dx=0;whiteSpace=wrap;shadow=0;sketch=0;strokeColor=none;strokeWidth=1;fillColor=#000000;rotation=0;" vertex="1" parent="YZ8cHGnXvSMEDQviJ1p--81">
          <mxGeometry y="30" width="40" height="10" as="geometry" />
        </mxCell>
        <mxCell id="YZ8cHGnXvSMEDQviJ1p--84" value="" style="verticalLabelPosition=bottom;verticalAlign=top;html=1;shape=mxgraph.basic.corner_round_rect;dx=0;whiteSpace=wrap;shadow=0;sketch=0;strokeColor=none;strokeWidth=1;fillColor=#000000;rotation=90;" vertex="1" parent="YZ8cHGnXvSMEDQviJ1p--81">
          <mxGeometry x="15" y="15" width="40" height="10" as="geometry" />
        </mxCell>
        <mxCell id="YZ8cHGnXvSMEDQviJ1p--85" value="" style="verticalLabelPosition=bottom;verticalAlign=top;html=1;shape=mxgraph.basic.corner_round_rect;dx=0;whiteSpace=wrap;shadow=0;sketch=0;strokeColor=none;strokeWidth=1;fillColor=#000000;rotation=-90;" vertex="1" parent="YZ8cHGnXvSMEDQviJ1p--81">
          <mxGeometry x="-10" y="20" width="30" height="10" as="geometry" />
        </mxCell>
        <mxCell id="YZ8cHGnXvSMEDQviJ1p--86" value="" style="verticalLabelPosition=bottom;verticalAlign=top;html=1;shape=mxgraph.basic.corner_round_rect;dx=0;whiteSpace=wrap;shadow=0;sketch=0;strokeColor=none;strokeWidth=1;fillColor=#000000;rotation=0;" vertex="1" parent="YZ8cHGnXvSMEDQviJ1p--81">
          <mxGeometry x="15" y="15" width="10" height="10.5" as="geometry" />
        </mxCell>
        <mxCell id="YZ8cHGnXvSMEDQviJ1p--88" value="" style="verticalLabelPosition=bottom;verticalAlign=top;html=1;shape=mxgraph.basic.corner_round_rect;dx=2.5;whiteSpace=wrap;shadow=0;sketch=0;strokeColor=none;strokeWidth=1;fillColor=#000000;rotation=-270;resizeHeight=0;container=0;" vertex="1" parent="YZ8cHGnXvSMEDQviJ1p--105">
          <mxGeometry x="69.29999999999995" y="10.25" width="31" height="10.5" as="geometry" />
        </mxCell>
        <mxCell id="YZ8cHGnXvSMEDQviJ1p--89" value="" style="verticalLabelPosition=bottom;verticalAlign=top;html=1;shape=mxgraph.basic.corner_round_rect;dx=0;whiteSpace=wrap;shadow=0;sketch=0;strokeColor=none;strokeWidth=1;fillColor=#000000;rotation=-270;container=0;" vertex="1" parent="YZ8cHGnXvSMEDQviJ1p--105">
          <mxGeometry x="35.049999999999955" y="15" width="40" height="10" as="geometry" />
        </mxCell>
        <mxCell id="YZ8cHGnXvSMEDQviJ1p--90" value="" style="verticalLabelPosition=bottom;verticalAlign=top;html=1;shape=mxgraph.basic.corner_round_rect;dx=0;whiteSpace=wrap;shadow=0;sketch=0;strokeColor=none;strokeWidth=1;fillColor=#000000;rotation=-180;container=0;" vertex="1" parent="YZ8cHGnXvSMEDQviJ1p--105">
          <mxGeometry x="50.049999999999955" y="30" width="40" height="10" as="geometry" />
        </mxCell>
        <mxCell id="YZ8cHGnXvSMEDQviJ1p--91" value="" style="verticalLabelPosition=bottom;verticalAlign=top;html=1;shape=mxgraph.basic.corner_round_rect;dx=0;whiteSpace=wrap;shadow=0;sketch=0;strokeColor=none;strokeWidth=1;fillColor=#000000;rotation=-360;container=0;" vertex="1" parent="YZ8cHGnXvSMEDQviJ1p--105">
          <mxGeometry x="50.049999999999955" width="30" height="10" as="geometry" />
        </mxCell>
        <mxCell id="YZ8cHGnXvSMEDQviJ1p--92" value="" style="verticalLabelPosition=bottom;verticalAlign=top;html=1;shape=mxgraph.basic.corner_round_rect;dx=0;whiteSpace=wrap;shadow=0;sketch=0;strokeColor=none;strokeWidth=1;fillColor=#000000;rotation=-270;container=0;" vertex="1" parent="YZ8cHGnXvSMEDQviJ1p--105">
          <mxGeometry x="65.04999999999995" y="15" width="10" height="10.5" as="geometry" />
        </mxCell>
        <mxCell id="YZ8cHGnXvSMEDQviJ1p--96" value="" style="verticalLabelPosition=bottom;verticalAlign=top;html=1;shape=mxgraph.basic.corner_round_rect;dx=0;whiteSpace=wrap;shadow=0;sketch=0;strokeColor=none;strokeWidth=1;fillColor=#000000;rotation=-90;" vertex="1" parent="YZ8cHGnXvSMEDQviJ1p--105">
          <mxGeometry x="79.79999999999995" y="79.6" width="10" height="10.5" as="geometry" />
        </mxCell>
        <mxCell id="YZ8cHGnXvSMEDQviJ1p--97" value="" style="verticalLabelPosition=bottom;verticalAlign=top;html=1;shape=mxgraph.basic.corner_round_rect;dx=0;whiteSpace=wrap;shadow=0;sketch=0;strokeColor=none;strokeWidth=1;fillColor=#000000;rotation=-90;" vertex="1" parent="YZ8cHGnXvSMEDQviJ1p--105">
          <mxGeometry x="65.04999999999995" y="79.6" width="10" height="10.5" as="geometry" />
        </mxCell>
        <mxCell id="YZ8cHGnXvSMEDQviJ1p--99" value="" style="verticalLabelPosition=bottom;verticalAlign=top;html=1;shape=mxgraph.basic.corner_round_rect;dx=0;whiteSpace=wrap;shadow=0;sketch=0;strokeColor=none;strokeWidth=1;fillColor=#000000;rotation=-90;" vertex="1" parent="YZ8cHGnXvSMEDQviJ1p--105">
          <mxGeometry x="60.049999999999955" y="54.55000000000001" width="20" height="10.5" as="geometry" />
        </mxCell>
        <mxCell id="YZ8cHGnXvSMEDQviJ1p--101" value="" style="verticalLabelPosition=bottom;verticalAlign=top;html=1;shape=mxgraph.basic.corner_round_rect;dx=0;whiteSpace=wrap;shadow=0;sketch=0;strokeColor=none;strokeWidth=1;fillColor=#000000;rotation=-90;" vertex="1" parent="YZ8cHGnXvSMEDQviJ1p--105">
          <mxGeometry x="75.04999999999995" y="54.55000000000001" width="20" height="10.5" as="geometry" />
        </mxCell>
        <mxCell id="YZ8cHGnXvSMEDQviJ1p--102" value="" style="verticalLabelPosition=bottom;verticalAlign=top;html=1;shape=mxgraph.basic.corner_round_rect;dx=0;whiteSpace=wrap;shadow=0;sketch=0;strokeColor=none;strokeWidth=1;fillColor=#000000;rotation=-180;" vertex="1" parent="YZ8cHGnXvSMEDQviJ1p--105">
          <mxGeometry x="67.04999999999995" y="59.30000000000001" width="20" height="10.5" as="geometry" />
        </mxCell>
        <mxCell id="YZ8cHGnXvSMEDQviJ1p--103" value="" style="verticalLabelPosition=bottom;verticalAlign=top;html=1;shape=mxgraph.basic.corner_round_rect;dx=0;whiteSpace=wrap;shadow=0;sketch=0;strokeColor=none;strokeWidth=1;fillColor=#000000;rotation=-180;" vertex="1" parent="YZ8cHGnXvSMEDQviJ1p--105">
          <mxGeometry x="55.049999999999955" y="49.849999999999994" width="20" height="10.5" as="geometry" />
        </mxCell>
        <mxCell id="YZ8cHGnXvSMEDQviJ1p--147" value="" style="group" vertex="1" connectable="0" parent="1">
          <mxGeometry x="700.5" y="160" width="152.38" height="265" as="geometry" />
        </mxCell>
        <mxCell id="YZ8cHGnXvSMEDQviJ1p--113" value="" style="verticalLabelPosition=bottom;verticalAlign=top;html=1;shape=mxgraph.basic.rect;fillColor2=none;strokeWidth=1;size=20;indent=5;strokeColor=none;fillColor=#E6E6E6;rotation=180;container=0;" vertex="1" parent="YZ8cHGnXvSMEDQviJ1p--147">
          <mxGeometry x="6.6251311625577145" y="0.0018887827685373228" width="139.4609989550627" height="6.6249055608615715" as="geometry" />
        </mxCell>
        <mxCell id="YZ8cHGnXvSMEDQviJ1p--114" value="" style="verticalLabelPosition=bottom;verticalAlign=top;html=1;shape=mxgraph.basic.rect;fillColor2=none;strokeWidth=1;size=20;indent=5;strokeColor=none;fillColor=#E6E6E6;rotation=180;container=0;" vertex="1" parent="YZ8cHGnXvSMEDQviJ1p--147">
          <mxGeometry x="6.6251311625577145" y="258.3732056563698" width="139.4609989550627" height="6.6249055608615715" as="geometry" />
        </mxCell>
        <mxCell id="YZ8cHGnXvSMEDQviJ1p--108" value="" style="verticalLabelPosition=bottom;verticalAlign=top;html=1;shape=mxgraph.basic.corner_round_rect;dx=5;whiteSpace=wrap;rotation=-90;flipH=1;fillColor=#E6E6E6;strokeColor=none;container=0;" vertex="1" parent="YZ8cHGnXvSMEDQviJ1p--147">
          <mxGeometry x="-62.93973767488447" y="62.93849161095346" width="132.5045120713185" height="6.6249055608615715" as="geometry" />
        </mxCell>
        <mxCell id="YZ8cHGnXvSMEDQviJ1p--109" value="" style="verticalLabelPosition=bottom;verticalAlign=top;html=1;shape=mxgraph.basic.corner_round_rect;dx=5;whiteSpace=wrap;rotation=-90;flipH=0;strokeColor=none;fillColor=#E6E6E6;container=0;" vertex="1" parent="YZ8cHGnXvSMEDQviJ1p--147">
          <mxGeometry x="-62.93973767488447" y="195.43660282818487" width="132.5045120713185" height="6.6249055608615715" as="geometry" />
        </mxCell>
        <mxCell id="YZ8cHGnXvSMEDQviJ1p--111" value="" style="verticalLabelPosition=bottom;verticalAlign=top;html=1;shape=mxgraph.basic.corner_round_rect;dx=5;whiteSpace=wrap;rotation=-90;flipH=1;fillColor=#E6E6E6;strokeColor=none;flipV=1;container=0;" vertex="1" parent="YZ8cHGnXvSMEDQviJ1p--147">
          <mxGeometry x="82.81522560356589" y="62.93849161095346" width="132.5045120713185" height="6.6249055608615715" as="geometry" />
        </mxCell>
        <mxCell id="YZ8cHGnXvSMEDQviJ1p--112" value="" style="verticalLabelPosition=bottom;verticalAlign=top;html=1;shape=mxgraph.basic.corner_round_rect;dx=5;whiteSpace=wrap;rotation=-90;flipH=0;strokeColor=none;fillColor=#E6E6E6;flipV=1;container=0;" vertex="1" parent="YZ8cHGnXvSMEDQviJ1p--147">
          <mxGeometry x="82.81522560356589" y="195.43660282818487" width="132.5045120713185" height="6.6249055608615715" as="geometry" />
        </mxCell>
      </root>
    </mxGraphModel>
  </diagram>
</mxfile>
